<?xml version="1.0" encoding="utf-8"?>
<!-- Generator: Adobe Illustrator 18.1.1, SVG Export Plug-In . SVG Version: 6.00 Build 0)  -->
<svg version="1.1" id="BG_1_" xmlns="http://www.w3.org/2000/svg" xmlns:xlink="http://www.w3.org/1999/xlink" x="0px" y="0px"
	 viewBox="0 0 599.996 194.167" enable-background="new 0 0 599.996 194.167" xml:space="preserve">
<linearGradient id="SVGID_1_" gradientUnits="userSpaceOnUse" x1="122.8229" y1="821.6044" x2="21.0102" y2="719.7916" gradientTransform="matrix(1 0 0 1 0.0801 -698.6909)">
	<stop  offset="0" style="stop-color:#7070B2"/>
	<stop  offset="1" style="stop-color:#3CC4EC"/>
</linearGradient>
<path fill="url(#SVGID_1_)" d="M103.92,7.443c-1.055-0.521-2.121-1.016-3.195-1.482c-2.15-0.934-4.336-1.757-6.549-2.472
	C69.273-4.543,40.863,1.327,21.091,21.1l0,0C8.705,33.485,1.775,49.26,0.3,65.438c-0.135,1.473-0.224,2.947-0.268,4.42
	c-0.044,1.477-0.043,2.953,0.003,4.428c0.138,4.426,0.682,8.84,1.633,13.187c0.371,1.694,0.803,3.379,1.298,5.049
	c0.33,1.113,0.686,2.222,1.071,3.319c0.384,1.101,0.796,2.19,1.235,3.274c0.44,1.085,0.907,2.158,1.4,3.226
	c3.46,7.457,8.266,14.443,14.418,20.597c0.563,0.563,1.136,1.11,1.712,1.651c0.154,0.143,0.307,0.285,0.461,0.429
	c0.5,0.459,1.004,0.912,1.514,1.354c0.088,0.078,0.177,0.157,0.266,0.235c0.596,0.513,1.198,1.015,1.806,1.504
	c0.133,0.107,0.269,0.211,0.402,0.318c0.524,0.416,1.053,0.825,1.586,1.227c0.112,0.082,0.221,0.169,0.331,0.25
	c0.642,0.479,1.292,0.941,1.946,1.396c0.061,0.041,0.122,0.082,0.184,0.125c0.613,0.422,1.231,0.828,1.854,1.229
	c0.093,0.061,0.183,0.119,0.274,0.178c1.394,0.885,2.811,1.719,4.25,2.498c0.029,0.018,0.059,0.033,0.088,0.049
	c17.136,9.26,37.232,11.047,55.528,5.393c0.004,0.016,0.008,0.029,0.012,0.043c10.189-3.143,19.816-8.598,28.061-16.365
	c-5.371-5.348-13.452-6.313-19.803-2.896c0.003-0.01,0.007-0.018,0.011-0.025c-22.153,13.25-51.269,10.365-70.352-8.719
	C8.695,90.279,8.695,53.758,31.222,31.229c22.525-22.525,59.048-22.525,81.574,0c18.868,18.868,21.906,47.543,9.17,69.599
	c-0.14,0.24-0.271,0.482-0.414,0.723c-0.021,0.035-0.039,0.072-0.063,0.107c0.001,0,0.002,0,0.002,0
	c-3.356,6.338-2.374,14.371,2.946,19.717c7.769-8.244,13.224-17.873,16.368-28.062c-0.011-0.002-0.022-0.004-0.034-0.008
	c5.352-17.32,4.033-36.256-3.98-52.765c-0.005-0.01-0.01-0.021-0.014-0.03c-0.375-0.771-0.764-1.533-1.166-2.29
	c-0.013-0.024-0.025-0.048-0.039-0.071c-0.371-0.698-0.759-1.393-1.155-2.081c-0.05-0.084-0.096-0.169-0.144-0.25
	c-0.412-0.711-0.839-1.416-1.277-2.113c-0.034-0.054-0.069-0.106-0.104-0.161c-0.396-0.627-0.807-1.248-1.225-1.866
	c-0.086-0.127-0.172-0.254-0.258-0.381c-0.455-0.662-0.92-1.318-1.4-1.969c-0.043-0.06-0.09-0.119-0.136-0.18
	c-0.433-0.584-0.878-1.162-1.332-1.734c-0.116-0.148-0.235-0.298-0.354-0.445c-0.501-0.623-1.011-1.242-1.534-1.851
	c-0.037-0.045-0.076-0.087-0.113-0.13c-0.49-0.566-0.992-1.126-1.503-1.68c-0.139-0.153-0.28-0.305-0.422-0.455
	c-0.552-0.592-1.113-1.179-1.69-1.755C117.214,15.388,110.781,10.835,103.92,7.443z"/>
<path id="A" fill="#FFFFFF" d="M205.597,27.745l-37.486,88.704h8.316l11.482-27.059h41.711l11.484,27.059h8.316l-37.488-88.704
	H205.597z M191.077,81.734l17.688-41.845l17.688,41.845H191.077z"/>
<polygon id="M" fill="#FFFFFF" points="321.392,70.514 286.807,27.745 278.36,27.745 278.36,116.449 286.807,116.449 
	286.807,41.209 321.392,83.846 355.976,41.209 355.976,116.449 364.423,116.449 364.423,27.745 355.976,27.745 "/>
<path id="I" fill="#FFFFFF" d="M410.644,108.481c0.004-0.016,0.008-0.024,0.008-0.037V27.745h-8.447v88.704h0.057
	c4.631,0,8.387-3.754,8.387-8.385v0.416H410.644z"/>
<polygon id="T" fill="#FFFFFF" points="441.853,35.402 470.761,35.402 470.761,116.449 479.21,116.449 479.21,35.402 
	508.117,35.402 508.117,27.746 441.853,27.746 "/>
<polygon id="Y" fill="#FFFFFF" points="589.91,27.746 565.621,64.574 541.466,27.746 531.566,27.746 561.398,73.022 
	561.398,116.449 569.845,116.449 569.845,73.022 599.81,27.746 "/>
<g>
	<path fill="#FFFFFF" d="M13.613,183.635v-25.188h14.658v0.712H14.36v11.064h13.092v0.711H14.36v11.989h14.48v0.712H13.613z"/>
	<path fill="#FFFFFF" d="M38.801,175.523l-5.977,8.111h-0.996l6.475-8.646l-5.657-7.72h0.996l5.194,7.187l5.158-7.187h1.032
		l-5.692,7.72l6.582,8.646h-1.032L38.801,175.523z"/>
	<path fill="#FFFFFF" d="M51.431,171.717c0.712-1.637,1.726-2.869,3.042-3.7c1.316-0.83,2.757-1.245,4.322-1.245
		c1.21,0,2.318,0.22,3.327,0.658c1.008,0.439,1.873,1.044,2.597,1.814c0.723,0.771,1.281,1.689,1.672,2.757
		c0.392,1.067,0.587,2.229,0.587,3.486c0,1.234-0.202,2.379-0.604,3.434c-0.404,1.056-0.967,1.969-1.69,2.739
		c-0.724,0.771-1.589,1.376-2.597,1.814c-1.008,0.438-2.105,0.658-3.291,0.658c-0.782,0-1.547-0.106-2.294-0.32
		c-0.747-0.213-1.441-0.527-2.081-0.942c-0.641-0.415-1.222-0.925-1.744-1.53c-0.522-0.604-0.937-1.31-1.245-2.116h-0.106v12.949
		h-0.783V167.27h0.783v4.447H51.431z M66.195,175.487c0-1.066-0.172-2.086-0.516-3.06c-0.344-0.972-0.836-1.825-1.477-2.562
		c-0.64-0.734-1.417-1.321-2.33-1.761c-0.914-0.438-1.939-0.658-3.078-0.658c-1.091,0-2.093,0.214-3.006,0.641
		c-0.914,0.427-1.702,1.002-2.366,1.726c-0.665,0.724-1.187,1.571-1.565,2.544c-0.38,0.973-0.569,2.004-0.569,3.095
		s0.189,2.123,0.569,3.095c0.379,0.974,0.901,1.821,1.565,2.544c0.664,0.724,1.452,1.299,2.366,1.726
		c0.913,0.427,1.915,0.641,3.006,0.641c1.139,0,2.164-0.214,3.078-0.641c0.913-0.427,1.69-1.002,2.33-1.726
		c0.641-0.723,1.132-1.57,1.477-2.544C66.023,177.575,66.195,176.555,66.195,175.487z"/>
	<path fill="#FFFFFF" d="M72.171,175.274c0,0.996,0.148,1.98,0.445,2.953c0.296,0.973,0.747,1.844,1.352,2.614
		c0.604,0.771,1.37,1.394,2.294,1.868c0.925,0.475,2.016,0.711,3.273,0.711c1.281,0,2.419-0.254,3.416-0.765
		c0.996-0.51,1.862-1.251,2.597-2.224l0.569,0.498c-0.807,1.044-1.75,1.839-2.829,2.384c-1.08,0.546-2.33,0.818-3.753,0.818
		c-1.209,0-2.312-0.22-3.309-0.658c-0.996-0.438-1.856-1.05-2.579-1.832c-0.724-0.783-1.281-1.72-1.672-2.811
		c-0.392-1.091-0.587-2.277-0.587-3.558c0-1.233,0.201-2.371,0.605-3.415c0.403-1.044,0.955-1.945,1.654-2.704
		c0.699-0.759,1.523-1.346,2.473-1.761c0.948-0.415,1.968-0.623,3.06-0.623c1.281,0,2.395,0.226,3.344,0.676
		c0.948,0.451,1.737,1.044,2.366,1.779c0.628,0.735,1.097,1.571,1.405,2.508c0.308,0.938,0.462,1.892,0.462,2.864v0.676H72.171z
		 M86.011,174.599c-0.024-1.067-0.208-2.04-0.551-2.918c-0.344-0.877-0.813-1.63-1.405-2.259c-0.593-0.628-1.305-1.114-2.135-1.459
		c-0.831-0.343-1.755-0.516-2.775-0.516c-1.233,0-2.289,0.255-3.167,0.765c-0.877,0.511-1.595,1.139-2.152,1.886
		c-0.558,0.747-0.966,1.53-1.227,2.349c-0.261,0.818-0.392,1.535-0.392,2.152H86.011z"/>
	<path fill="#FFFFFF" d="M95.794,167.893c1.043-0.747,2.17-1.121,3.38-1.121c0.118,0,0.225,0,0.32,0c0.094,0,0.201,0.013,0.32,0.035
		v0.677c-0.095-0.023-0.184-0.036-0.267-0.036c-0.083,0-0.148,0-0.196,0c-1.044,0-1.933,0.231-2.668,0.694
		c-0.735,0.462-1.34,1.067-1.814,1.814c-0.475,0.747-0.824,1.577-1.05,2.49s-0.338,1.82-0.338,2.722v8.467h-0.783v-12.238
		c0-0.261-0.006-0.581-0.018-0.961c-0.012-0.379-0.024-0.765-0.036-1.156c-0.012-0.391-0.03-0.765-0.053-1.12
		c-0.024-0.355-0.048-0.652-0.071-0.89h0.783c0.023,0.237,0.041,0.534,0.053,0.89c0.012,0.355,0.023,0.741,0.036,1.156
		c0.012,0.415,0.023,0.818,0.036,1.209c0.012,0.392,0.018,0.742,0.018,1.05h0.071C93.992,169.866,94.75,168.64,95.794,167.893z"/>
	<path fill="#FFFFFF" d="M104.261,161.115c-0.213,0-0.403-0.083-0.569-0.249s-0.249-0.392-0.249-0.677
		c0-0.261,0.083-0.474,0.249-0.64s0.356-0.249,0.569-0.249s0.403,0.083,0.569,0.249c0.166,0.166,0.249,0.379,0.249,0.64
		c0,0.285-0.089,0.511-0.267,0.677C104.635,161.032,104.451,161.115,104.261,161.115z M103.87,183.635V167.27h0.783v16.365H103.87z"
		/>
	<path fill="#FFFFFF" d="M111.27,175.274c0,0.996,0.148,1.98,0.445,2.953c0.296,0.973,0.747,1.844,1.352,2.614
		c0.604,0.771,1.37,1.394,2.294,1.868c0.925,0.475,2.016,0.711,3.273,0.711c1.281,0,2.419-0.254,3.416-0.765
		c0.996-0.51,1.862-1.251,2.597-2.224l0.569,0.498c-0.807,1.044-1.75,1.839-2.829,2.384c-1.08,0.546-2.33,0.818-3.753,0.818
		c-1.209,0-2.312-0.22-3.309-0.658c-0.996-0.438-1.856-1.05-2.579-1.832c-0.724-0.783-1.281-1.72-1.672-2.811
		c-0.392-1.091-0.587-2.277-0.587-3.558c0-1.233,0.201-2.371,0.605-3.415c0.403-1.044,0.955-1.945,1.654-2.704
		c0.699-0.759,1.523-1.346,2.473-1.761c0.948-0.415,1.968-0.623,3.06-0.623c1.281,0,2.395,0.226,3.344,0.676
		c0.948,0.451,1.737,1.044,2.366,1.779c0.628,0.735,1.097,1.571,1.405,2.508c0.308,0.938,0.462,1.892,0.462,2.864v0.676H111.27z
		 M125.109,174.599c-0.024-1.067-0.208-2.04-0.551-2.918c-0.344-0.877-0.813-1.63-1.405-2.259c-0.593-0.628-1.305-1.114-2.135-1.459
		c-0.831-0.343-1.755-0.516-2.775-0.516c-1.233,0-2.289,0.255-3.167,0.765c-0.877,0.511-1.595,1.139-2.152,1.886
		c-0.558,0.747-0.966,1.53-1.227,2.349c-0.261,0.818-0.392,1.535-0.392,2.152H125.109z"/>
	<path fill="#FFFFFF" d="M133.647,169.547c0.45-0.593,0.96-1.097,1.53-1.513c0.569-0.414,1.186-0.729,1.85-0.942
		c0.664-0.214,1.352-0.32,2.063-0.32c1.138,0,2.087,0.202,2.846,0.604c0.759,0.404,1.363,0.938,1.814,1.602
		c0.45,0.664,0.77,1.411,0.96,2.241c0.189,0.83,0.285,1.672,0.285,2.525v9.891h-0.783v-9.819c0-0.663-0.071-1.375-0.213-2.135
		c-0.143-0.759-0.409-1.446-0.801-2.063c-0.391-0.616-0.919-1.132-1.583-1.547c-0.665-0.415-1.506-0.623-2.526-0.623
		c-0.902,0-1.75,0.185-2.544,0.552c-0.795,0.368-1.482,0.896-2.063,1.583c-0.581,0.688-1.044,1.524-1.387,2.508
		c-0.344,0.984-0.516,2.105-0.516,3.362v8.183h-0.783v-12.238c0-0.261-0.006-0.581-0.018-0.961
		c-0.012-0.379-0.024-0.765-0.036-1.156c-0.012-0.391-0.03-0.765-0.053-1.12c-0.024-0.355-0.048-0.652-0.071-0.89h0.783
		c0.023,0.237,0.041,0.534,0.053,0.89c0.012,0.355,0.023,0.741,0.036,1.156c0.012,0.415,0.023,0.818,0.036,1.209
		c0.012,0.392,0.018,0.742,0.018,1.05h0.071C132.852,170.815,133.196,170.14,133.647,169.547z"/>
	<path fill="#FFFFFF" d="M163.709,169.476c-0.617-0.641-1.34-1.139-2.17-1.494c-0.831-0.356-1.696-0.534-2.597-0.534
		c-1.163,0-2.206,0.22-3.131,0.658c-0.925,0.439-1.714,1.026-2.366,1.761c-0.653,0.736-1.156,1.59-1.512,2.562
		c-0.355,0.974-0.534,1.993-0.534,3.06c0,1.067,0.178,2.088,0.534,3.06c0.356,0.974,0.859,1.821,1.512,2.544
		c0.652,0.724,1.441,1.299,2.366,1.726s1.968,0.641,3.131,0.641c0.901,0,1.784-0.154,2.65-0.463
		c0.865-0.308,1.619-0.771,2.259-1.388l0.533,0.498c-0.711,0.712-1.547,1.228-2.508,1.548s-1.939,0.48-2.935,0.48
		c-1.21,0-2.319-0.214-3.327-0.641c-1.008-0.427-1.885-1.02-2.632-1.778s-1.329-1.672-1.744-2.739s-0.623-2.229-0.623-3.487
		c0-1.257,0.208-2.419,0.623-3.486s0.997-1.986,1.744-2.757s1.624-1.375,2.632-1.814c1.008-0.438,2.117-0.658,3.327-0.658
		c1.043,0,2.033,0.19,2.971,0.569c0.937,0.38,1.737,0.913,2.401,1.601L163.709,169.476z"/>
	<path fill="#FFFFFF" d="M168.476,175.274c0,0.996,0.148,1.98,0.445,2.953c0.296,0.973,0.747,1.844,1.352,2.614
		c0.604,0.771,1.37,1.394,2.294,1.868c0.925,0.475,2.016,0.711,3.273,0.711c1.281,0,2.419-0.254,3.416-0.765
		c0.996-0.51,1.862-1.251,2.597-2.224l0.569,0.498c-0.807,1.044-1.75,1.839-2.829,2.384c-1.08,0.546-2.33,0.818-3.753,0.818
		c-1.209,0-2.312-0.22-3.309-0.658c-0.996-0.438-1.856-1.05-2.579-1.832c-0.724-0.783-1.281-1.72-1.672-2.811
		c-0.392-1.091-0.587-2.277-0.587-3.558c0-1.233,0.201-2.371,0.605-3.415c0.403-1.044,0.955-1.945,1.654-2.704
		c0.699-0.759,1.523-1.346,2.473-1.761c0.948-0.415,1.968-0.623,3.06-0.623c1.281,0,2.395,0.226,3.344,0.676
		c0.948,0.451,1.737,1.044,2.366,1.779c0.628,0.735,1.097,1.571,1.405,2.508c0.308,0.938,0.462,1.892,0.462,2.864v0.676H168.476z
		 M182.315,174.599c-0.024-1.067-0.208-2.04-0.551-2.918c-0.344-0.877-0.813-1.63-1.405-2.259c-0.593-0.628-1.305-1.114-2.135-1.459
		c-0.831-0.343-1.755-0.516-2.775-0.516c-1.233,0-2.289,0.255-3.167,0.765c-0.877,0.511-1.595,1.139-2.152,1.886
		c-0.558,0.747-0.966,1.53-1.227,2.349c-0.261,0.818-0.392,1.535-0.392,2.152H182.315z"/>
	<path fill="#FFFFFF" d="M209.034,179.935c0,0.617,0.029,1.275,0.089,1.975c0.059,0.7,0.125,1.275,0.196,1.726h-0.747
		c-0.048-0.236-0.083-0.527-0.107-0.872c-0.024-0.343-0.053-0.699-0.089-1.066c-0.036-0.368-0.06-0.729-0.071-1.086
		c-0.012-0.355-0.018-0.651-0.018-0.889h-0.107c-0.475,1.494-1.293,2.603-2.455,3.326c-1.163,0.723-2.408,1.085-3.736,1.085
		c-0.664,0-1.322-0.095-1.974-0.284c-0.653-0.19-1.24-0.475-1.761-0.854c-0.522-0.379-0.943-0.865-1.263-1.458
		c-0.32-0.593-0.48-1.293-0.48-2.1c0-1.161,0.302-2.099,0.907-2.811c0.604-0.711,1.357-1.263,2.259-1.654s1.868-0.646,2.9-0.765
		c1.032-0.118,1.974-0.178,2.828-0.178h2.846v-1.316c0-1.826-0.486-3.16-1.458-4.003c-0.973-0.841-2.242-1.263-3.807-1.263
		c-0.973,0-1.88,0.178-2.721,0.534c-0.842,0.355-1.596,0.83-2.259,1.423l-0.427-0.604c0.759-0.664,1.619-1.168,2.579-1.513
		c0.96-0.344,1.903-0.516,2.828-0.516c1.874,0,3.35,0.48,4.43,1.44c1.079,0.961,1.619,2.473,1.619,4.536V179.935z M208.251,174.705
		h-2.526c-0.902,0-1.85,0.054-2.846,0.16s-1.91,0.326-2.739,0.658c-0.831,0.332-1.512,0.807-2.046,1.423
		c-0.534,0.617-0.8,1.447-0.8,2.49c0,0.76,0.148,1.394,0.444,1.903c0.296,0.511,0.676,0.92,1.139,1.228
		c0.462,0.309,0.972,0.534,1.53,0.676c0.557,0.143,1.085,0.214,1.583,0.214c1.21,0,2.218-0.226,3.024-0.676s1.453-1.026,1.939-1.726
		c0.486-0.699,0.824-1.471,1.014-2.313c0.189-0.842,0.285-1.666,0.285-2.473V174.705z"/>
	<path fill="#FFFFFF" d="M226.857,169.547c0.45-0.593,0.96-1.097,1.53-1.513c0.569-0.414,1.186-0.729,1.85-0.942
		c0.664-0.214,1.352-0.32,2.063-0.32c1.138,0,2.087,0.202,2.846,0.604c0.759,0.404,1.363,0.938,1.814,1.602
		c0.45,0.664,0.77,1.411,0.96,2.241c0.189,0.83,0.285,1.672,0.285,2.525v9.891h-0.783v-9.819c0-0.663-0.071-1.375-0.213-2.135
		c-0.143-0.759-0.409-1.446-0.801-2.063c-0.391-0.616-0.919-1.132-1.583-1.547c-0.665-0.415-1.506-0.623-2.526-0.623
		c-0.902,0-1.75,0.185-2.544,0.552c-0.795,0.368-1.482,0.896-2.063,1.583c-0.581,0.688-1.044,1.524-1.387,2.508
		c-0.344,0.984-0.516,2.105-0.516,3.362v8.183h-0.783v-12.238c0-0.261-0.006-0.581-0.018-0.961
		c-0.012-0.379-0.024-0.765-0.036-1.156c-0.012-0.391-0.03-0.765-0.053-1.12c-0.024-0.355-0.048-0.652-0.071-0.89h0.783
		c0.023,0.237,0.041,0.534,0.053,0.89c0.012,0.355,0.023,0.741,0.036,1.156c0.012,0.415,0.023,0.818,0.036,1.209
		c0.012,0.392,0.018,0.742,0.018,1.05h0.071C226.062,170.815,226.406,170.14,226.857,169.547z"/>
	<path fill="#FFFFFF" d="M244.609,175.274c0,0.996,0.148,1.98,0.445,2.953c0.296,0.973,0.747,1.844,1.352,2.614
		c0.604,0.771,1.37,1.394,2.294,1.868c0.925,0.475,2.016,0.711,3.273,0.711c1.281,0,2.419-0.254,3.416-0.765
		c0.996-0.51,1.862-1.251,2.597-2.224l0.569,0.498c-0.807,1.044-1.75,1.839-2.829,2.384c-1.08,0.546-2.33,0.818-3.753,0.818
		c-1.209,0-2.312-0.22-3.309-0.658c-0.996-0.438-1.856-1.05-2.579-1.832c-0.724-0.783-1.281-1.72-1.672-2.811
		c-0.392-1.091-0.587-2.277-0.587-3.558c0-1.233,0.201-2.371,0.605-3.415c0.403-1.044,0.955-1.945,1.654-2.704
		c0.699-0.759,1.523-1.346,2.473-1.761c0.948-0.415,1.968-0.623,3.06-0.623c1.281,0,2.395,0.226,3.344,0.676
		c0.948,0.451,1.737,1.044,2.366,1.779c0.628,0.735,1.097,1.571,1.405,2.508c0.308,0.938,0.462,1.892,0.462,2.864v0.676H244.609z
		 M258.449,174.599c-0.024-1.067-0.208-2.04-0.551-2.918c-0.344-0.877-0.813-1.63-1.405-2.259c-0.593-0.628-1.305-1.114-2.135-1.459
		c-0.831-0.343-1.755-0.516-2.775-0.516c-1.233,0-2.289,0.255-3.167,0.765c-0.877,0.511-1.595,1.139-2.152,1.886
		c-0.558,0.747-0.966,1.53-1.227,2.349c-0.261,0.818-0.392,1.535-0.392,2.152H258.449z"/>
	<path fill="#FFFFFF" d="M280.221,183.635h-1.067l-5.336-15.512h-0.071l-5.301,15.512h-1.067l-4.768-16.365h0.818l4.483,15.583
		h0.071l5.266-15.583h1.103l5.301,15.583h0.071l4.483-15.583h0.818L280.221,183.635z"/>
	<path fill="#FFFFFF" d="M298.757,183.635v-26.896h0.783v26.896H298.757z"/>
	<path fill="#FFFFFF" d="M306.156,175.274c0,0.996,0.148,1.98,0.445,2.953c0.296,0.973,0.747,1.844,1.352,2.614
		c0.604,0.771,1.369,1.394,2.295,1.868c0.925,0.475,2.016,0.711,3.272,0.711c1.281,0,2.419-0.254,3.416-0.765
		c0.996-0.51,1.861-1.251,2.597-2.224l0.569,0.498c-0.807,1.044-1.75,1.839-2.828,2.384c-1.08,0.546-2.331,0.818-3.754,0.818
		c-1.209,0-2.313-0.22-3.309-0.658s-1.855-1.05-2.579-1.832c-0.724-0.783-1.28-1.72-1.672-2.811s-0.587-2.277-0.587-3.558
		c0-1.233,0.201-2.371,0.604-3.415s0.954-1.945,1.654-2.704c0.699-0.759,1.523-1.346,2.473-1.761
		c0.948-0.415,1.969-0.623,3.06-0.623c1.28,0,2.396,0.226,3.344,0.676c0.948,0.451,1.737,1.044,2.366,1.779
		c0.628,0.735,1.097,1.571,1.405,2.508c0.308,0.938,0.463,1.892,0.463,2.864v0.676H306.156z M319.996,174.599
		c-0.024-1.067-0.208-2.04-0.552-2.918c-0.344-0.877-0.813-1.63-1.405-2.259c-0.593-0.628-1.305-1.114-2.135-1.459
		c-0.83-0.343-1.756-0.516-2.775-0.516c-1.233,0-2.289,0.255-3.166,0.765c-0.878,0.511-1.595,1.139-2.152,1.886
		s-0.967,1.53-1.228,2.349s-0.391,1.535-0.391,2.152H319.996z"/>
	<path fill="#FFFFFF" d="M331.273,183.635h-1.032l-6.439-16.365h0.854l6.083,15.583h0.071l5.87-15.583h0.854L331.273,183.635z"/>
	<path fill="#FFFFFF" d="M341.377,175.274c0,0.996,0.148,1.98,0.445,2.953c0.296,0.973,0.747,1.844,1.352,2.614
		c0.604,0.771,1.369,1.394,2.295,1.868c0.925,0.475,2.016,0.711,3.272,0.711c1.281,0,2.419-0.254,3.416-0.765
		c0.996-0.51,1.861-1.251,2.597-2.224l0.569,0.498c-0.807,1.044-1.75,1.839-2.828,2.384c-1.08,0.546-2.331,0.818-3.754,0.818
		c-1.209,0-2.313-0.22-3.309-0.658s-1.855-1.05-2.579-1.832c-0.724-0.783-1.28-1.72-1.672-2.811s-0.587-2.277-0.587-3.558
		c0-1.233,0.201-2.371,0.604-3.415s0.954-1.945,1.654-2.704c0.699-0.759,1.523-1.346,2.473-1.761
		c0.948-0.415,1.969-0.623,3.06-0.623c1.28,0,2.396,0.226,3.344,0.676c0.948,0.451,1.737,1.044,2.366,1.779
		c0.628,0.735,1.097,1.571,1.405,2.508c0.308,0.938,0.463,1.892,0.463,2.864v0.676H341.377z M355.217,174.599
		c-0.024-1.067-0.208-2.04-0.552-2.918c-0.344-0.877-0.813-1.63-1.405-2.259c-0.593-0.628-1.305-1.114-2.135-1.459
		c-0.83-0.343-1.756-0.516-2.775-0.516c-1.233,0-2.289,0.255-3.166,0.765c-0.878,0.511-1.595,1.139-2.152,1.886
		s-0.967,1.53-1.228,2.349s-0.391,1.535-0.391,2.152H355.217z"/>
	<path fill="#FFFFFF" d="M361.798,183.635v-26.896h0.782v26.896H361.798z"/>
	<path fill="#FFFFFF" d="M394.422,175.417c0,1.28-0.208,2.454-0.623,3.521s-1.002,1.987-1.761,2.758
		c-0.76,0.771-1.667,1.369-2.722,1.796c-1.056,0.427-2.212,0.641-3.469,0.641c-1.258,0-2.407-0.214-3.451-0.641
		s-1.944-1.025-2.703-1.796c-0.76-0.771-1.347-1.69-1.762-2.758s-0.622-2.241-0.622-3.521c0-1.281,0.207-2.449,0.622-3.505
		c0.415-1.055,1.002-1.962,1.762-2.722c0.759-0.759,1.659-1.352,2.703-1.778s2.193-0.641,3.451-0.641
		c1.257,0,2.413,0.214,3.469,0.641c1.055,0.427,1.962,1.02,2.722,1.778c0.759,0.76,1.346,1.667,1.761,2.722
		C394.214,172.968,394.422,174.136,394.422,175.417z M393.639,175.417c0-1.091-0.178-2.123-0.533-3.096
		c-0.356-0.972-0.872-1.819-1.548-2.544c-0.676-0.723-1.494-1.292-2.455-1.707c-0.96-0.415-2.045-0.623-3.255-0.623
		s-2.289,0.208-3.237,0.623c-0.949,0.415-1.762,0.984-2.438,1.707c-0.676,0.725-1.191,1.572-1.547,2.544
		c-0.356,0.973-0.534,2.005-0.534,3.096c0,1.114,0.178,2.158,0.534,3.13c0.355,0.974,0.871,1.821,1.547,2.544
		c0.676,0.724,1.488,1.299,2.438,1.726c0.948,0.427,2.027,0.641,3.237,0.641s2.295-0.214,3.255-0.641
		c0.961-0.427,1.779-1.002,2.455-1.726c0.676-0.723,1.191-1.57,1.548-2.544C393.461,177.575,393.639,176.531,393.639,175.417z"/>
	<path fill="#FFFFFF" d="M406.659,157.13c-0.237-0.047-0.475-0.089-0.711-0.124c-0.237-0.036-0.486-0.054-0.747-0.054
		c-0.641,0-1.187,0.131-1.637,0.392c-0.451,0.262-0.813,0.6-1.085,1.014c-0.273,0.415-0.469,0.884-0.587,1.405
		c-0.119,0.522-0.178,1.056-0.178,1.602v5.905h4.446v0.676h-4.446v15.689h-0.783v-15.689h-3.451v-0.676h3.416v-5.87
		c0-0.996,0.13-1.826,0.391-2.49s0.599-1.186,1.015-1.565c0.414-0.379,0.871-0.646,1.369-0.801c0.498-0.153,0.996-0.23,1.494-0.23
		c0.617,0,1.162,0.07,1.637,0.213L406.659,157.13z"/>
	<path fill="#FFFFFF" d="M420.428,161.115c-0.214,0-0.404-0.083-0.569-0.249c-0.166-0.166-0.249-0.392-0.249-0.677
		c0-0.261,0.083-0.474,0.249-0.64c0.165-0.166,0.355-0.249,0.569-0.249c0.213,0,0.402,0.083,0.569,0.249
		c0.165,0.166,0.249,0.379,0.249,0.64c0,0.285-0.09,0.511-0.268,0.677S420.617,161.115,420.428,161.115z M420.036,183.635V167.27
		h0.782v16.365H420.036z"/>
	<path fill="#FFFFFF" d="M430.033,169.547c0.45-0.593,0.96-1.097,1.529-1.513c0.569-0.414,1.186-0.729,1.85-0.942
		c0.664-0.214,1.353-0.32,2.063-0.32c1.139,0,2.087,0.202,2.847,0.604c0.759,0.404,1.363,0.938,1.814,1.602
		c0.45,0.664,0.771,1.411,0.96,2.241s0.285,1.672,0.285,2.525v9.891h-0.783v-9.819c0-0.663-0.07-1.375-0.213-2.135
		c-0.143-0.759-0.409-1.446-0.801-2.063c-0.392-0.616-0.919-1.132-1.583-1.547s-1.507-0.623-2.526-0.623
		c-0.901,0-1.749,0.185-2.543,0.552c-0.795,0.368-1.482,0.896-2.063,1.583c-0.582,0.688-1.044,1.524-1.388,2.508
		c-0.344,0.984-0.516,2.105-0.516,3.362v8.183h-0.783v-12.238c0-0.261-0.006-0.581-0.018-0.961
		c-0.013-0.379-0.024-0.765-0.035-1.156c-0.013-0.391-0.03-0.765-0.054-1.12c-0.024-0.355-0.048-0.652-0.071-0.89h0.782
		c0.023,0.237,0.042,0.534,0.054,0.89s0.023,0.741,0.036,1.156c0.012,0.415,0.022,0.818,0.035,1.209
		c0.012,0.392,0.018,0.742,0.018,1.05h0.071C429.238,170.815,429.582,170.14,430.033,169.547z"/>
	<path fill="#FFFFFF" d="M453.762,183.955c-0.379,0.071-0.747,0.106-1.103,0.106c-1.28,0-2.2-0.361-2.757-1.085
		c-0.558-0.724-0.836-1.63-0.836-2.722v-12.31h-3.558v-0.676h3.521v-4.803h0.818v4.803h4.803v0.676h-4.803v12.31
		c0,1.115,0.272,1.916,0.818,2.401c0.545,0.486,1.269,0.729,2.17,0.729c0.664,0,1.269-0.106,1.814-0.32l0.106,0.604
		C454.474,183.789,454.142,183.884,453.762,183.955z"/>
	<path fill="#FFFFFF" d="M458.6,175.274c0,0.996,0.148,1.98,0.445,2.953c0.296,0.973,0.747,1.844,1.352,2.614
		c0.604,0.771,1.369,1.394,2.295,1.868c0.925,0.475,2.016,0.711,3.272,0.711c1.281,0,2.419-0.254,3.416-0.765
		c0.996-0.51,1.861-1.251,2.597-2.224l0.569,0.498c-0.807,1.044-1.75,1.839-2.828,2.384c-1.08,0.546-2.331,0.818-3.754,0.818
		c-1.209,0-2.313-0.22-3.309-0.658s-1.855-1.05-2.579-1.832c-0.724-0.783-1.28-1.72-1.672-2.811s-0.587-2.277-0.587-3.558
		c0-1.233,0.201-2.371,0.604-3.415s0.954-1.945,1.654-2.704c0.699-0.759,1.523-1.346,2.473-1.761
		c0.948-0.415,1.969-0.623,3.06-0.623c1.28,0,2.396,0.226,3.344,0.676c0.948,0.451,1.737,1.044,2.366,1.779
		c0.628,0.735,1.097,1.571,1.405,2.508c0.308,0.938,0.463,1.892,0.463,2.864v0.676H458.6z M472.439,174.599
		c-0.024-1.067-0.208-2.04-0.552-2.918c-0.344-0.877-0.813-1.63-1.405-2.259c-0.593-0.628-1.305-1.114-2.135-1.459
		c-0.83-0.343-1.756-0.516-2.775-0.516c-1.233,0-2.289,0.255-3.166,0.765c-0.878,0.511-1.595,1.139-2.152,1.886
		s-0.967,1.53-1.228,2.349s-0.391,1.535-0.391,2.152H472.439z"/>
	<path fill="#FFFFFF" d="M482.223,167.893c1.043-0.747,2.17-1.121,3.38-1.121c0.118,0,0.225,0,0.319,0s0.201,0.013,0.32,0.035v0.677
		c-0.095-0.023-0.184-0.036-0.267-0.036s-0.148,0-0.195,0c-1.044,0-1.934,0.231-2.669,0.694c-0.735,0.462-1.34,1.067-1.814,1.814
		s-0.824,1.577-1.049,2.49c-0.226,0.913-0.338,1.82-0.338,2.722v8.467h-0.783v-12.238c0-0.261-0.006-0.581-0.018-0.961
		c-0.013-0.379-0.024-0.765-0.035-1.156c-0.013-0.391-0.03-0.765-0.054-1.12c-0.024-0.355-0.048-0.652-0.071-0.89h0.782
		c0.023,0.237,0.042,0.534,0.054,0.89s0.023,0.741,0.036,1.156c0.012,0.415,0.022,0.818,0.035,1.209
		c0.012,0.392,0.018,0.742,0.018,1.05h0.071C480.42,169.866,481.179,168.64,482.223,167.893z"/>
	<path fill="#FFFFFF" d="M501.113,179.935c0,0.617,0.029,1.275,0.089,1.975c0.059,0.7,0.124,1.275,0.195,1.726h-0.747
		c-0.048-0.236-0.083-0.527-0.106-0.872c-0.023-0.343-0.054-0.699-0.089-1.066c-0.036-0.368-0.06-0.729-0.071-1.086
		c-0.012-0.355-0.018-0.651-0.018-0.889h-0.106c-0.476,1.494-1.293,2.603-2.455,3.326c-1.162,0.723-2.407,1.085-3.735,1.085
		c-0.665,0-1.323-0.095-1.975-0.284c-0.652-0.19-1.24-0.475-1.762-0.854c-0.521-0.379-0.942-0.865-1.263-1.458s-0.48-1.293-0.48-2.1
		c0-1.161,0.303-2.099,0.907-2.811c0.605-0.711,1.357-1.263,2.26-1.654c0.9-0.392,1.867-0.646,2.899-0.765
		c1.031-0.118,1.975-0.178,2.828-0.178h2.846v-1.316c0-1.826-0.486-3.16-1.458-4.003c-0.973-0.841-2.241-1.263-3.807-1.263
		c-0.973,0-1.88,0.178-2.722,0.534c-0.843,0.355-1.596,0.83-2.26,1.423l-0.427-0.604c0.759-0.664,1.619-1.168,2.58-1.513
		c0.96-0.344,1.903-0.516,2.828-0.516c1.873,0,3.35,0.48,4.429,1.44c1.079,0.961,1.619,2.473,1.619,4.536V179.935z M500.33,174.705
		h-2.525c-0.901,0-1.851,0.054-2.847,0.16s-1.909,0.326-2.739,0.658s-1.512,0.807-2.045,1.423c-0.534,0.617-0.801,1.447-0.801,2.49
		c0,0.76,0.147,1.394,0.444,1.903c0.297,0.511,0.676,0.92,1.139,1.228c0.463,0.309,0.973,0.534,1.53,0.676
		c0.557,0.143,1.085,0.214,1.583,0.214c1.209,0,2.217-0.226,3.023-0.676s1.453-1.026,1.939-1.726
		c0.485-0.699,0.823-1.471,1.014-2.313c0.189-0.842,0.284-1.666,0.284-2.473V174.705z"/>
	<path fill="#FFFFFF" d="M519.755,169.476c-0.617-0.641-1.34-1.139-2.17-1.494c-0.831-0.356-1.696-0.534-2.598-0.534
		c-1.162,0-2.205,0.22-3.13,0.658c-0.926,0.439-1.714,1.026-2.366,1.761c-0.652,0.736-1.156,1.59-1.512,2.562
		c-0.356,0.974-0.534,1.993-0.534,3.06c0,1.067,0.178,2.088,0.534,3.06c0.355,0.974,0.859,1.821,1.512,2.544
		c0.652,0.724,1.44,1.299,2.366,1.726c0.925,0.427,1.968,0.641,3.13,0.641c0.901,0,1.785-0.154,2.65-0.463
		c0.866-0.308,1.619-0.771,2.26-1.388l0.533,0.498c-0.711,0.712-1.548,1.228-2.508,1.548c-0.961,0.32-1.939,0.48-2.936,0.48
		c-1.209,0-2.318-0.214-3.326-0.641s-1.886-1.02-2.633-1.778s-1.328-1.672-1.743-2.739s-0.622-2.229-0.622-3.487
		c0-1.257,0.207-2.419,0.622-3.486s0.996-1.986,1.743-2.757s1.625-1.375,2.633-1.814c1.008-0.438,2.117-0.658,3.326-0.658
		c1.044,0,2.034,0.19,2.971,0.569c0.937,0.38,1.737,0.913,2.401,1.601L519.755,169.476z"/>
	<path fill="#FFFFFF" d="M530.498,183.955c-0.379,0.071-0.747,0.106-1.103,0.106c-1.28,0-2.2-0.361-2.757-1.085
		c-0.558-0.724-0.836-1.63-0.836-2.722v-12.31h-3.558v-0.676h3.521v-4.803h0.818v4.803h4.803v0.676h-4.803v12.31
		c0,1.115,0.272,1.916,0.818,2.401c0.545,0.486,1.269,0.729,2.17,0.729c0.664,0,1.269-0.106,1.814-0.32l0.106,0.604
		C531.21,183.789,530.878,183.884,530.498,183.955z"/>
	<path fill="#FFFFFF" d="M536.369,161.115c-0.214,0-0.404-0.083-0.569-0.249c-0.166-0.166-0.249-0.392-0.249-0.677
		c0-0.261,0.083-0.474,0.249-0.64c0.165-0.166,0.355-0.249,0.569-0.249c0.213,0,0.402,0.083,0.569,0.249
		c0.165,0.166,0.249,0.379,0.249,0.64c0,0.285-0.09,0.511-0.268,0.677S536.559,161.115,536.369,161.115z M535.978,183.635V167.27
		h0.782v16.365H535.978z"/>
	<path fill="#FFFFFF" d="M559.707,175.417c0,1.28-0.208,2.454-0.623,3.521s-1.002,1.987-1.761,2.758
		c-0.76,0.771-1.667,1.369-2.722,1.796c-1.056,0.427-2.212,0.641-3.469,0.641c-1.258,0-2.407-0.214-3.451-0.641
		s-1.944-1.025-2.703-1.796c-0.76-0.771-1.347-1.69-1.762-2.758s-0.622-2.241-0.622-3.521c0-1.281,0.207-2.449,0.622-3.505
		c0.415-1.055,1.002-1.962,1.762-2.722c0.759-0.759,1.659-1.352,2.703-1.778s2.193-0.641,3.451-0.641
		c1.257,0,2.413,0.214,3.469,0.641c1.055,0.427,1.962,1.02,2.722,1.778c0.759,0.76,1.346,1.667,1.761,2.722
		C559.499,172.968,559.707,174.136,559.707,175.417z M558.924,175.417c0-1.091-0.178-2.123-0.533-3.096
		c-0.356-0.972-0.872-1.819-1.548-2.544c-0.676-0.723-1.494-1.292-2.455-1.707c-0.96-0.415-2.045-0.623-3.255-0.623
		s-2.289,0.208-3.237,0.623c-0.949,0.415-1.762,0.984-2.438,1.707c-0.676,0.725-1.191,1.572-1.547,2.544
		c-0.356,0.973-0.534,2.005-0.534,3.096c0,1.114,0.178,2.158,0.534,3.13c0.355,0.974,0.871,1.821,1.547,2.544
		c0.676,0.724,1.488,1.299,2.438,1.726c0.948,0.427,2.027,0.641,3.237,0.641s2.295-0.214,3.255-0.641
		c0.961-0.427,1.779-1.002,2.455-1.726c0.676-0.723,1.191-1.57,1.548-2.544C558.746,177.575,558.924,176.531,558.924,175.417z"/>
	<path fill="#FFFFFF" d="M567.498,169.547c0.45-0.593,0.96-1.097,1.529-1.513c0.569-0.414,1.186-0.729,1.85-0.942
		c0.664-0.214,1.353-0.32,2.063-0.32c1.139,0,2.087,0.202,2.847,0.604c0.759,0.404,1.363,0.938,1.814,1.602
		c0.45,0.664,0.771,1.411,0.96,2.241s0.285,1.672,0.285,2.525v9.891h-0.783v-9.819c0-0.663-0.07-1.375-0.213-2.135
		c-0.143-0.759-0.409-1.446-0.801-2.063c-0.392-0.616-0.919-1.132-1.583-1.547s-1.507-0.623-2.526-0.623
		c-0.901,0-1.749,0.185-2.543,0.552c-0.795,0.368-1.482,0.896-2.063,1.583c-0.582,0.688-1.044,1.524-1.388,2.508
		c-0.344,0.984-0.516,2.105-0.516,3.362v8.183h-0.783v-12.238c0-0.261-0.006-0.581-0.018-0.961
		c-0.013-0.379-0.024-0.765-0.035-1.156c-0.013-0.391-0.03-0.765-0.054-1.12c-0.024-0.355-0.048-0.652-0.071-0.89h0.782
		c0.023,0.237,0.042,0.534,0.054,0.89s0.023,0.741,0.036,1.156c0.012,0.415,0.022,0.818,0.035,1.209
		c0.012,0.392,0.018,0.742,0.018,1.05h0.071C566.703,170.815,567.047,170.14,567.498,169.547z"/>
	<path fill="#FFFFFF" d="M586.531,183.849c-0.214,0-0.404-0.084-0.569-0.249c-0.166-0.166-0.249-0.392-0.249-0.677
		c0-0.261,0.083-0.474,0.249-0.64c0.165-0.166,0.355-0.249,0.569-0.249c0.213,0,0.402,0.083,0.569,0.249
		c0.165,0.166,0.249,0.379,0.249,0.64c0,0.285-0.09,0.511-0.268,0.677C586.904,183.765,586.721,183.849,586.531,183.849z"/>
</g>
</svg>
