<svg id="Layer_1" data-name="Layer 1" xmlns="http://www.w3.org/2000/svg" viewBox="0 0 150 150"><defs><style>.cls-1{fill:none;}.cls-2{fill:#c4cdd3;}.cls-3{fill:#002b5c;}.cls-4{fill:#005082;}.cls-5{fill:#7bc043;}.cls-6{fill:#fff;}</style></defs><title>MINArtboard 1</title><g id="Page-1"><g id="MIN"><g id="Page-1-2" data-name="Page-1"><rect id="Rectangle" class="cls-1" width="150" height="150"/><path class="cls-2" d="M75,130.61a53.5,53.5,0,1,1,50.52-71l.25.73h0A53.52,53.52,0,0,1,75,130.61"/><path class="cls-3" d="M119.07,52.92a49.92,49.92,0,0,0-30-24.07,50.9,50.9,0,0,0-6.77-1.48h0a50.26,50.26,0,0,0-14.54,99.47,49.6,49.6,0,0,0,14.89-.07l.18.09.06-.13a50.49,50.49,0,0,0,40.4-35.57,49.93,49.93,0,0,0-4.2-38.23M94.49,35.28v-.06A46.13,46.13,0,0,1,117.42,58.8c-4.81-6-11.33-9.74-17.55-12.09A8.48,8.48,0,0,0,95.13,41a4.19,4.19,0,0,0-2.58-2.46c-1.51.34-4,2.09-5.51,4.87-1.66-.25-3.09-.41-4.18-.5l-.33,0-1.4-.11A40.4,40.4,0,0,1,72,41.28c.2-.14.41-.27.62-.4,12-5.83,21.72-5.6,21.85-5.6M63.73,62.73a22.48,22.48,0,0,0-7.09-8.25c1.33-.77,2.72-1.47,4-2.08a65,65,0,0,1,9.3,1.81c1.58.95,3.16,2,4.74,3l-1.23,1.54a17.77,17.77,0,0,0-9.71,3.95m-2.24,2c-4.09,4.11-10.85,13-19,20.38A52.61,52.61,0,0,1,52,57.82a16.35,16.35,0,0,1,1.87-1.56c3.17,1.6,5.65,4.64,7.62,8.45m15.08-9.8c-1.57-1.06-3.15-2.08-4.72-3-1.18-1.33-3.57-3.82-4.81-5.12a23.78,23.78,0,0,1,2.43-3.23A42.25,42.25,0,0,0,80.92,45.7l1.32.1.37,0c.67.06,1.32.13,2,.2-2.44,2.56-5,5.3-8,8.88M64.88,32a46,46,0,0,1,23,.72l.23.07a57.62,57.62,0,0,0-10.89,2.84c-3.34,1.12-6.81,2.45-10,3.75a5.38,5.38,0,0,1-2.42-2.62,7.44,7.44,0,0,1,0-4.75m-3.22.85a9.52,9.52,0,0,0,.44,5,7.77,7.77,0,0,0,2,2.89c-2,.86-3.85,1.66-5.36,2.34-3.56-.14-9.78-.32-14.15-.06h-.71A46.42,46.42,0,0,1,61.66,32.9M40.81,46.07c1-.07,2.47-.12,4.21-.08,4.22.38,5.75,1.54,8.2,3.15l-1.82,3.2c-7.84-1.53-14.9,3.65-19.6,8.52a45.9,45.9,0,0,1,9-14.79m-11,21.78C32.91,63.62,41,54.14,49.86,55.09c-.7,1.27-1.29,2.36-1.65,3.06a54.12,54.12,0,0,0-6.14,13,57.75,57.75,0,0,0-2.67,16.6,58.27,58.27,0,0,1-5.85,4.28,25.81,25.81,0,0,0,7.1,4.43s-2.43,3.83-4,6.32a46.09,46.09,0,0,1-6.89-35m69.74,48.37a77.54,77.54,0,0,0-1.23-9.74,14,14,0,0,1,1.7,1.07c-.23-10.07-4.47-13.62-4.35-19.12a27.82,27.82,0,0,1,1.94-10.68c7.35,8.66,12.84,18,14.6,26.76a46.13,46.13,0,0,1-12.66,11.7M119.36,90a46.18,46.18,0,0,1-4.93,11.17c-2.45-8.86-8.09-18-15.36-26.36.66-1.12,1.4-2.24,2.26-3.44,2-2.15,2.92-.16,2.92-.16,1.59-4.32.58-6.49-.19-7.42a1.68,1.68,0,0,0-.63-.58A7.84,7.84,0,0,0,100,58.61a30.78,30.78,0,0,0,.49-8.68c14.88,6.21,19.27,17.45,20.55,23.35A46,46,0,0,1,119.36,90"/><path class="cls-4" d="M67.27,39.42c3.19-1.3,6.66-2.63,10-3.75a57.59,57.59,0,0,1,10.89-2.84l-.23-.07A46.43,46.43,0,0,0,81.7,31.4,45.85,45.85,0,0,0,64.88,32a7.43,7.43,0,0,0,0,4.75,5.37,5.37,0,0,0,2.42,2.62"/><path class="cls-4" d="M42.07,71.19a54.17,54.17,0,0,1,6.14-13c.35-.7.94-1.79,1.65-3.06-8.89-.95-17,8.53-20.08,12.77a46.08,46.08,0,0,0,6.89,35c1.55-2.5,4-6.32,4-6.32a25.79,25.79,0,0,1-7.1-4.43,58.37,58.37,0,0,0,5.85-4.28,57.75,57.75,0,0,1,2.67-16.6"/><path class="cls-4" d="M43.87,43h.71c4.37-.26,10.6-.08,14.15.06,1.5-.68,3.33-1.48,5.36-2.34a7.78,7.78,0,0,1-2-2.89,9.52,9.52,0,0,1-.44-5A46.42,46.42,0,0,0,43.87,43"/><path class="cls-4" d="M99.52,116.22a46.13,46.13,0,0,0,12.66-11.7c-1.76-8.72-7.25-18.11-14.6-26.76a27.8,27.8,0,0,0-1.94,10.68c-.11,5.49,4.12,9,4.35,19.12a14,14,0,0,0-1.7-1.07,77.61,77.61,0,0,1,1.23,9.74"/><path class="cls-4" d="M60.63,52.4c-1.26.6-2.65,1.31-4,2.08a22.47,22.47,0,0,1,7.09,8.25,17.76,17.76,0,0,1,9.71-3.95l1.23-1.54c-1.58-1.07-3.16-2.08-4.74-3a65,65,0,0,0-9.3-1.81"/><path class="cls-4" d="M84.58,46c-.65-.07-1.3-.14-2-.2l-.37,0-1.32-.1a42.28,42.28,0,0,1-11.46-2.17A23.63,23.63,0,0,0,67,46.77c1.25,1.3,3.63,3.79,4.81,5.12,1.58.95,3.15,2,4.72,3,3-3.58,5.56-6.32,8-8.88"/><path class="cls-4" d="M31.8,60.87c4.69-4.87,11.75-10.05,19.6-8.52l1.82-3.2c-2.45-1.61-4-2.77-8.2-3.15-1.74,0-3.19,0-4.21.08a45.9,45.9,0,0,0-9,14.79"/><path class="cls-4" d="M119.36,90A46,46,0,0,0,121,73.28c-1.28-5.9-5.67-17.14-20.55-23.35a30.78,30.78,0,0,1-.49,8.68,7.84,7.84,0,0,1,3.42,4.63,1.68,1.68,0,0,1,.63.58c.77.93,1.78,3.1.19,7.42,0,0-.93-2-2.92.16-.86,1.2-1.61,2.32-2.26,3.44,7.26,8.36,12.91,17.51,15.36,26.36A46.18,46.18,0,0,0,119.36,90"/><path class="cls-4" d="M92.55,38.52A4.19,4.19,0,0,1,95.13,41a8.48,8.48,0,0,1,4.74,5.72c6.22,2.36,12.74,6.11,17.55,12.09A46.12,46.12,0,0,0,94.49,35.23v.06c-.13,0-9.84-.23-21.85,5.6-.21.12-.42.26-.62.4a40.44,40.44,0,0,0,9.1,1.48l1.4.11.33,0c1.1.09,2.52.25,4.18.5,1.53-2.78,4-4.53,5.51-4.87"/><path class="cls-4" d="M61.49,64.71c-2-3.81-4.46-6.85-7.62-8.45A16.63,16.63,0,0,0,52,57.82a52.61,52.61,0,0,0-9.47,27.27c8.12-7.41,14.88-16.27,19-20.38"/><path class="cls-5" d="M66,42.46l-3.19,4.63A27.48,27.48,0,0,1,67.22,51c-3.47-.71-7.29-1.35-7.29-1.35l-6,3.29,2.83-4.7a43.38,43.38,0,0,0-4.11-3c2.41.07,7,.45,7,.45Z"/><path class="cls-5" d="M72,62.95a14.59,14.59,0,0,0-.77,3.61s-4.24.62-6.28,2c0,0,4.23-4.22,7-5.62"/><path class="cls-6" d="M100.55,62.76a3.51,3.51,0,0,1,1.09-.11,2.92,2.92,0,0,0-.49-.86,4.35,4.35,0,0,0-.92-.79,2.94,2.94,0,0,1,.32,1.77"/><path class="cls-6" d="M96.73,64.69c.55-.38,1-.69,1.5-.94a7.85,7.85,0,0,0-.4-.82,4.3,4.3,0,0,0-1.31-1.22,6.59,6.59,0,0,1,.21,3"/><path class="cls-2" d="M51.26,93.3c-3.6,1.47-12.13-.54-12.13-.54,8.61-.5,17-6.67,17-6.67l0,0a22.85,22.85,0,0,1-6,6.11,4.65,4.65,0,0,0,1.12,1"/><path class="cls-5" d="M94.21,41.9s-2.12-1.66-4.52.92c2.58-4.69,4.06-2,4.52-.92"/><path class="cls-2" d="M102.57,64.66l-.27-.18c-1.34-.72-3.75,1.37-5.33,2.24s-3.86,2.71-5,.17,1.45-6.51,2.34-9c2-5.53,2-8.78,1.62-10.54,1.82,2.05,2.39,6,2.39,6S99,45.94,95.42,44a8.53,8.53,0,0,1-.08,1.91v0a15.07,15.07,0,0,1-6.6-.75,113.51,113.51,0,0,0-13.28,18c-1.62,3.31-3.21,7.18-3.61,10.34a13.24,13.24,0,0,1-.64-3.33c-2.07.8-9.11,4.26-10.62,14.87,0,0,4.47-4.62,9.42-6.42,0,0-3.13,8.2,2.85,22.75,0,0,2.42-8.92,7.48-11.17C83.4,105.35,92.39,105.6,95,116c0,0,2.75-5.37-.56-14.49a4.75,4.75,0,0,1,2.11,1.46s-.15-2.67-2.64-8.42a24.62,24.62,0,0,1-2.13-7.24c-1.46,1.32-1.83,5.79-1.83,5.79C85.48,81,98.15,69,100.46,67.19c1.13-.87,1.82-.88,2.24-.67.44-.9.39-1.48-.13-1.85"/></g></g></g></svg>